<svg width="400" height="400" viewBox="0 0 400 400" fill="none" xmlns="http://www.w3.org/2000/svg">
<rect width="400" height="400" fill="#4A8C2A"/>
<path d="M375.052 176.357C375.694 176.357 376.427 176.394 376.427 175.533C376.427 174.838 375.877 174.746 375.364 174.746H374.3V176.357H375.07H375.052ZM374.282 179.085H373.604V174.179H375.492C376.592 174.179 377.087 174.654 377.087 175.533C377.087 176.412 376.519 176.778 375.95 176.906L377.325 179.085H376.574L375.235 176.906H374.282V179.085ZM378.609 176.632C378.609 174.636 377.124 173.062 375.144 173.062C373.164 173.062 371.679 174.636 371.679 176.632C371.679 178.627 373.164 180.201 375.144 180.201C377.124 180.201 378.609 178.627 378.609 176.632ZM379.287 176.632C379.287 178.902 377.435 180.751 375.162 180.751C372.889 180.751 371.037 178.883 371.037 176.632C371.037 174.38 372.889 172.513 375.162 172.513C377.435 172.513 379.287 174.38 379.287 176.632Z" fill="white"/>
<path d="M254.51 174.014H201.014V180.659H224.48V225.931H231.135V180.659H254.51V174.014Z" fill="white"/>
<path d="M80.0316 174.014H72.405L49.47 218.682L26.5167 174.014H19L45.7483 226.023H53.2833L80.0316 174.014Z" fill="white"/>
<path d="M382 226.022L355.252 173.922L347.808 174.013L321.06 226.022H328.485L351.53 181.263L374.465 226.022H382Z" fill="white"/>
<path d="M136.718 180.659V174.014H88.6117V226.023H136.718V219.396H95.2667V203.304H135.142V196.659H95.2667V180.659H136.718Z" fill="white"/>
<path d="M172.578 228C181.085 228 188.748 224.668 194.248 219.341C194.413 219.158 194.597 218.957 194.762 218.865L189.518 214.38C185.21 218.279 179.288 220.751 172.578 220.751C159.672 220.751 149.185 211.414 149.185 199.991C149.185 188.568 159.672 179.231 172.578 179.231C179.197 179.231 185.137 181.703 189.427 185.62L194.67 181.135C189.17 175.515 181.342 172 172.578 172C156.06 172 142.658 184.577 142.658 199.991C142.658 215.405 156.078 227.982 172.578 227.982" fill="white"/>
<path d="M269.838 180.659H301.572C305.991 180.659 309.547 184.192 309.547 188.622C309.547 193.052 306.174 196.403 302.013 196.677H269.838V180.659ZM316.276 188.622C316.276 180.494 309.712 174.032 301.572 174.032H263.201V226.041H269.929V203.304H297.136L308.832 226.041H316.367L304.414 203.048C311.142 201.73 316.276 195.798 316.276 188.622Z" fill="white"/>
</svg>
